<svg width="64" height="64" viewBox="0 0 64 64" fill="none" xmlns="http://www.w3.org/2000/svg">
<mask id="mask0_502_122" style="mask-type:luminance" maskUnits="userSpaceOnUse" x="0" y="0" width="64" height="64">
<path d="M0.9375 0.692719H63.9063V63.6615H0.9375V0.692719Z" fill="white"/>
</mask>
<g mask="url(#mask0_502_122)">
<path fill-rule="evenodd" clip-rule="evenodd" d="M42.651 33.9896C40.4948 33.9896 39.4115 36.6042 40.9375 38.125C41.2188 38.4063 41.2188 38.8646 40.9375 39.1458L39.3906 40.6927C39.1094 40.974 38.651 40.974 38.3698 40.6927C36.849 39.1667 34.2344 40.25 34.2344 42.4063C34.2344 42.8021 33.9115 43.125 33.5156 43.125H31.3229C30.9271 43.125 30.6042 42.8021 30.6042 42.4063C30.6042 40.2448 27.9948 39.1667 26.4688 40.6927C26.1875 40.974 25.7292 40.974 25.4531 40.6927L23.901 39.1458C23.6198 38.8646 23.6198 38.4063 23.901 38.125C25.4271 36.6042 24.3438 33.9896 22.1875 33.9896C21.7917 33.9896 21.4688 33.6667 21.4688 33.2708V31.0781C21.4688 30.6823 21.7917 30.3594 22.1875 30.3594C24.3438 30.3594 25.4271 27.75 23.901 26.224C23.6198 25.9427 23.6198 25.4844 23.901 25.2083L25.4531 23.6563C25.7292 23.375 26.1875 23.375 26.4688 23.6563C27.9948 25.1823 30.6042 24.099 30.6042 21.9427C30.6042 21.5469 30.9271 21.224 31.3229 21.224H33.5156C33.9115 21.224 34.2344 21.5469 34.2344 21.9427C34.2344 24.099 36.849 25.1823 38.3698 23.6563C38.651 23.375 39.1094 23.375 39.3906 23.6563L40.9375 25.2083C41.2188 25.4844 41.2188 25.9427 40.9375 26.224C39.4115 27.75 40.4948 30.3594 42.651 30.3594C43.0469 30.3594 43.3698 30.6823 43.3698 31.0781V33.2708C43.3698 33.6667 43.0469 33.9896 42.651 33.9896ZM55.5104 41.2656C53.2865 46.9167 49.0313 51.5833 43.6094 54.3229L44.4479 51.4896C44.5885 51.0052 44.3125 50.4948 43.8281 50.3542C43.3385 50.2083 42.8333 50.4896 42.6875 50.974L41.2865 55.7344C41.1458 56.2083 41.4063 56.7031 41.8698 56.8594L46.5573 58.4792C47.0417 58.6406 47.5625 58.3854 47.724 57.9063C47.8906 57.4271 47.6354 56.9063 47.1563 56.7396L44.6198 55.8646C50.3542 52.9063 54.8542 47.9427 57.2188 41.9323C57.4063 41.4583 57.1719 40.9271 56.6979 40.7448C56.2292 40.5573 55.6979 40.7917 55.5104 41.2656ZM41.5104 9.08334C47.1615 11.3073 51.8281 15.5625 54.5677 20.9844L51.7344 20.1458C51.25 20.0052 50.7396 20.2813 50.599 20.7656C50.4531 21.2552 50.7344 21.7604 51.2188 21.9063L55.9792 23.3073C56.4531 23.4479 56.9479 23.1875 57.1042 22.7292L58.724 18.0365C58.8854 17.5573 58.6302 17.0313 58.151 16.8698C57.6719 16.7031 57.151 16.9583 56.9844 17.4375L56.1094 19.9792C53.151 14.2396 48.1875 9.73959 42.1771 7.37501C41.7031 7.18751 41.1719 7.42189 40.9896 7.89584C40.8021 8.36459 41.0365 8.89584 41.5104 9.08334ZM9.32813 23.0886C11.5521 17.4323 15.8073 12.7708 21.2292 10.0261L20.3906 12.8594C20.25 13.3438 20.526 13.8542 21.0104 14C21.5 14.1406 22.0052 13.8646 22.151 13.375L23.5521 8.61459C23.6927 8.14584 23.4323 7.64584 22.974 7.48959L18.2813 5.8698C17.8021 5.70834 17.276 5.96355 17.1146 6.44272C16.9479 6.92189 17.2031 7.44272 17.6823 7.60939L20.224 8.48439C14.4844 11.4427 9.98437 16.4115 7.61979 22.4167C7.43229 22.8906 7.66667 23.4219 8.14063 23.6042C8.60937 23.7917 9.14063 23.5573 9.32813 23.0886ZM23.3333 55.2656C17.6771 53.0417 13.0156 48.7865 10.2708 43.3646L13.1042 44.2031C13.5885 44.3438 14.099 44.0677 14.2448 43.5833C14.3854 43.099 14.1094 42.5886 13.6198 42.4427L8.85938 41.0417C8.39063 40.9011 7.89063 41.1615 7.73438 41.625L6.11458 46.3177C5.95312 46.7969 6.20833 47.3177 6.6875 47.4792C7.16667 47.6458 7.6875 47.3906 7.85417 46.9115L8.72917 44.375C11.6875 50.1094 16.6563 54.6094 22.6615 56.974C23.1354 57.1615 23.6667 56.9271 23.849 56.4531C24.0365 55.9844 23.8021 55.4531 23.3333 55.2656ZM58.1302 25.5104L63.9063 28.8438V35.5052L58.1302 38.8386L52.3594 35.5052V28.8438L58.1302 25.5104ZM7.59896 26.4011L14.2656 37.9479H0.9375L7.59896 26.4011ZM32.4219 52.1146C35.6094 52.1146 38.1927 54.6979 38.1927 57.8854C38.1927 61.0729 35.6094 63.6615 32.4219 63.6615C29.2292 63.6615 26.6458 61.0729 26.6458 57.8854C26.6458 54.6979 29.2292 52.1146 32.4219 52.1146ZM26.6458 0.692719H38.1927V12.2344H26.6458V0.692719ZM32.4219 26.8229C29.4635 26.8229 27.0677 29.2188 27.0677 32.1771C27.0677 35.1302 29.4635 37.5261 32.4219 37.5261C35.375 37.5261 37.7708 35.1302 37.7708 32.1771C37.7708 29.2188 35.375 26.8229 32.4219 26.8229Z" fill="white"/>
</g>
</svg>
