<svg width="85" height="63" viewBox="0 0 85 63" fill="none" xmlns="http://www.w3.org/2000/svg">
<mask id="mask0_502_127" style="mask-type:luminance" maskUnits="userSpaceOnUse" x="0" y="0" width="85" height="63">
<path d="M0.333252 0H84.2343V62.3542H0.333252V0Z" fill="white"/>
</mask>
<g mask="url(#mask0_502_127)">
<path d="M77.9739 4.68228C77.9582 4.66665 77.9582 4.66665 77.9739 4.68228C77.9582 4.66665 77.9582 4.66666 77.9582 4.66666C73.4895 0.614572 66.9947 -0.614595 59.6718 1.21874C52.7447 2.95311 45.8332 7.22915 40.1353 13.3073C36.2603 9.51561 31.8437 6.61978 27.2343 4.90624C20.1353 2.2604 13.4166 2.74478 8.32803 6.27603C8.27595 6.31249 8.22387 6.34374 8.17178 6.3802C3.11449 9.94791 0.343657 16.0781 0.380116 23.6614C0.411367 31.0885 3.13012 39.0573 8.05199 46.1042C12.9687 53.151 19.5155 58.4479 26.4739 61.0469C29.5051 62.1719 32.4478 62.7292 35.2343 62.7292C39.0103 62.7292 42.4947 61.7083 45.4166 59.6614C45.4166 59.6614 45.4374 59.6615 45.4374 59.6458L45.453 59.6302C46.5468 58.8646 47.5312 57.9844 48.4166 56.9948C56.6249 56.1823 65.5572 51.2448 72.4322 43.6771C78.2187 37.3229 82.0103 29.8073 83.0989 22.5521C84.2447 15.0729 82.4062 8.73436 77.9739 4.68228ZM60.328 3.88541C65.6093 2.5677 70.3541 3.02082 73.9582 5.1302C71.8437 5.85936 68.7603 7.14061 65.6614 9.18228C58.3541 14.0312 54.5468 20.7864 54.651 28.75V28.7708C54.651 29.3229 54.651 29.8802 54.5989 30.4479C54.5624 30.9323 54.5103 31.4219 54.4426 31.9062C54.4218 32.0781 54.3905 32.25 54.3541 32.4219C54.078 34.0885 53.5728 35.6614 52.8645 37.1667C51.9114 31.2969 49.4374 25.3073 45.6249 19.8542C44.4999 18.2396 43.3072 16.7344 42.026 15.3125C47.4114 9.54686 53.8697 5.51561 60.328 3.88541ZM18.4895 5.97915C20.953 5.97915 23.5676 6.48436 26.2864 7.48957C30.8905 9.20311 35.3072 12.2135 39.1353 16.2135C39.1666 16.25 39.1874 16.2864 39.2187 16.3021C40.7082 17.8594 42.1093 19.5729 43.3905 21.4114C47.9843 27.9896 50.5468 35.401 50.5624 42.276C50.578 47.3333 49.2291 51.6302 46.6822 54.7292C46.4426 55.0208 46.1822 55.3177 45.9218 55.5781C45.7135 53.3229 45.1926 50.0156 43.9114 46.5364C40.901 38.2917 35.0989 33.1146 27.1301 31.5573C20.1041 30.1875 15.1666 25.776 12.4478 18.4323C10.8228 14.0156 10.5103 9.77603 10.4582 8.14582C12.7759 6.72395 15.5155 5.97915 18.4895 5.97915ZM35.203 59.9375C26.8749 59.9375 17.1041 54.224 10.3176 44.5104C5.72907 37.9323 3.16657 30.5208 3.15095 23.6458C3.13012 18.1042 4.76032 13.4792 7.8072 10.3281C8.01553 12.5781 8.53637 15.8854 9.81762 19.3646C12.828 27.6094 18.6301 32.7864 26.5937 34.3437C33.6249 35.7135 38.5624 40.1302 41.2812 47.4739C42.9062 51.8854 43.2187 56.1302 43.2707 57.7552C40.8801 59.2292 38.1301 59.9375 35.203 59.9375ZM80.3645 22.1198C79.3437 28.8542 75.7916 35.8333 70.3697 41.7917C64.6405 48.0937 57.4374 52.4427 50.5989 53.8437C52.3801 50.625 53.3176 46.6927 53.2968 42.276C53.2968 42.1198 53.2968 41.9844 53.2968 41.8281C55.2707 39.125 56.5364 36.1302 57.0885 32.875C57.1249 32.6823 57.1614 32.4739 57.177 32.2864C57.2447 31.75 57.3176 31.1771 57.3489 30.625C57.3853 29.9844 57.401 29.3594 57.401 28.7344C57.3176 21.6875 60.5728 15.901 67.1145 11.5729C71.0312 8.97915 75.0155 7.67707 76.5885 7.22915C79.9635 10.6562 81.2968 15.901 80.3645 22.1198Z" fill="white"/>
</g>
</svg>
