<svg width="65" height="53" viewBox="0 0 65 53" fill="none" xmlns="http://www.w3.org/2000/svg">
<mask id="mask0_502_117" style="mask-type:luminance" maskUnits="userSpaceOnUse" x="0" y="0" width="65" height="53">
<path d="M0.942627 0.177063H64.9114V52.1562H0.942627V0.177063Z" fill="white"/>
</mask>
<g mask="url(#mask0_502_117)">
<path d="M7.17697 6.51039C7.17697 4.91664 7.21343 3.42185 7.16135 1.93227C7.14572 0.744768 7.64052 0.177059 8.80718 0.348935C13.4582 1.00518 18.1926 1.34894 22.7238 2.46352C27.1509 3.56248 30.6874 6.33852 32.8645 10.7135C36.828 3.56248 43.5416 1.6406 50.7655 0.729143C52.8384 0.468726 54.9478 0.48956 57.0416 0.348935C58.2447 0.265601 58.6926 0.796851 58.6405 1.97914C58.5728 3.47394 58.6197 4.96873 58.6197 6.54685C60.3228 6.80206 61.8645 7.0781 63.4114 7.24998C64.4374 7.36977 64.9009 7.79685 64.8853 8.88019C64.8697 20.8073 64.8697 32.7291 64.8853 44.6719C64.8853 46.1302 64.1978 46.2187 63.0155 46.0469C56.6822 45.0521 50.3697 44.9479 44.1041 46.6823C40.4009 47.7083 36.9999 49.2708 33.9634 51.6927C33.5364 52.0364 32.4218 52.1562 32.0416 51.8646C25.3489 46.526 17.5416 45.151 9.30718 45.4271C7.09364 45.4948 4.86448 45.7708 2.66656 46.0989C1.44781 46.2864 0.947809 45.9427 0.968641 44.7239C0.984266 32.7968 0.984266 20.875 0.968641 8.93227C0.968641 7.86456 1.36448 7.40102 2.42697 7.28123C3.95302 7.06248 5.47906 6.78644 7.17697 6.51039ZM8.77593 37.8802C17.4739 38.2708 25.9686 38.9427 32.1978 46.7344C32.1978 45.6666 32.1978 45.0521 32.1978 44.4323C32.1978 34.875 32.1457 25.3177 32.2291 15.7604C32.2655 12.2083 30.9426 9.34373 28.2655 7.18227C22.5884 2.53123 15.7916 2.0156 8.77593 1.85935C8.77593 13.9583 8.77593 25.7812 8.77593 37.8802ZM56.9426 37.8802C56.9426 25.7448 56.9426 13.8541 56.9426 1.96352C50.7291 1.56768 43.5572 3.11456 39.3853 5.77081C35.6614 8.15623 33.552 11.3489 33.6197 16.0156C33.7603 25.3854 33.6561 34.7708 33.6561 44.1406C33.6561 44.8802 33.6561 45.5989 33.6561 46.6979C39.9009 38.9271 48.3593 38.2916 56.9426 37.8802ZM58.6041 8.08852C58.6041 9.10414 58.6041 9.80727 58.6041 10.5104C58.6041 19.4166 58.552 28.3385 58.6405 37.2448C58.6561 38.9948 58.1093 39.4739 56.4061 39.4739C53.8697 39.4896 51.2968 39.6614 48.7707 40.0416C44.2447 40.7239 39.9374 42.0833 36.6561 45.5312C35.6822 46.5416 34.9947 47.8281 34.1718 48.9948C43.3332 43.4375 53.0989 43.1302 63.2186 44.4323C63.2186 32.4531 63.2186 20.6354 63.2186 8.69269C61.7291 8.49998 60.302 8.31248 58.6041 8.08852ZM31.5468 48.9948C30.927 48.0521 30.4999 46.8698 29.6561 46.1823C27.7551 44.6198 25.7968 43.026 23.5988 41.9635C19.3436 39.901 14.6613 39.5781 9.99468 39.4583C7.19781 39.3854 7.17697 39.3698 7.17697 36.4687C7.17697 27.7552 7.17697 19.0364 7.17697 10.3229C7.17697 9.61456 7.17697 8.93227 7.17697 8.17706C6.4426 8.20831 5.97906 8.20831 5.51552 8.27602C2.42697 8.67185 2.42697 8.67185 2.42697 11.7448C2.42697 21.901 2.42697 32.0625 2.42697 42.2187C2.42697 42.9062 2.42697 43.5937 2.42697 44.4687C12.7239 43.1302 22.4686 43.4531 31.5468 48.9948Z" fill="white"/>
</g>
</svg>
