<svg width="73" height="63" viewBox="0 0 73 63" fill="none" xmlns="http://www.w3.org/2000/svg">
<mask id="mask0_502_3548" style="mask-type:luminance" maskUnits="userSpaceOnUse" x="0" y="0" width="73" height="63">
<path d="M0.052002 0.234375H72.6666V62.2031H0.052002V0.234375Z" fill="white"/>
</mask>
<g mask="url(#mask0_502_3548)">
<path d="M65.724 36.7344V6.91145C65.724 3.12499 62.6615 0.0572815 58.8698 0.0572815C55.0833 0.0572815 52 3.12499 52 6.91145V8.85416C49.1771 6.07291 45.8281 3.84895 42.1719 2.34374C42.151 2.34374 42.1354 2.32291 42.0938 2.32291C42.0938 2.32291 42.0781 2.30728 42.0573 2.30728C38.401 0.817698 34.5365 0.0572815 30.5573 0.0572815C25.0521 0.0572815 19.8958 1.52603 15.4167 4.07811C15.401 4.09374 15.3802 4.09374 15.3594 4.11457C6.14583 9.39061 -0.0625 19.3281 -0.0625 30.6771C-0.0625 47.5677 13.6667 61.3125 30.5573 61.3125C36.7656 61.3125 42.6667 59.4479 47.75 55.9844C49.8073 58.9896 52.9688 61.026 56.5885 61.6354C57.2917 61.7708 58.0313 61.8281 58.8698 61.8281C66.2969 61.8281 72.3542 55.7708 72.3542 48.3281C72.3542 43.5469 69.8385 39.1667 65.724 36.7344ZM52 12.4167V36.7344C49.8646 37.9896 48.1302 39.8333 46.9531 42.0052C46.8385 41.8542 46.7396 41.6614 46.7396 41.4375V32.8489C46.7396 30.9792 45.2188 29.4583 43.3542 29.4583H37.5833C37.3177 29.4583 37.0521 29.3437 36.8802 29.1354L35.1667 27.1354C35.0313 26.9844 34.9531 26.7917 34.9375 26.5833L34.5 19.8594C34.4792 19.5937 34.5938 19.2917 34.8021 19.0989L38.0781 16.1875C39.3906 15.0052 39.5625 12.9896 38.4792 11.6146L37.3177 10.0937C37.1823 9.9427 37.1094 9.72916 37.1094 9.52082V8.20832C37.1094 7.88541 37.276 7.57811 37.5469 7.40624L41.6979 4.79686C45.6563 6.51562 49.2188 9.11978 52 12.4167ZM2.375 30.6771C2.375 20.3958 7.89583 11.3854 16.1406 6.45832L19.7604 8.45312C20.0469 8.60936 20.2344 8.93228 20.2344 9.27603V12.3594C20.2344 12.7396 20.0104 13.0833 19.6667 13.2344L12.4115 16.2239C11.1563 16.7552 10.3333 17.9739 10.3333 19.3489V20.9844C10.3333 21.5 9.91667 21.9167 9.38542 21.9167H7.85938C6.52604 21.9167 5.30729 22.7187 4.77604 23.9375C4.23958 25.1354 4.45313 26.5469 5.32813 27.5364L8.31771 30.9219C8.79167 31.4948 9.47917 31.875 10.2031 32.0104L16.0833 33.151C16.4479 33.2083 16.7135 33.4739 16.8073 33.8177L17.6667 36.8646C18.0104 38.1198 19.0573 39.0729 20.3333 39.3021L26.1198 40.3125C26.5573 40.3854 26.901 40.7864 26.901 41.2448V43.3594C26.901 43.6458 26.7656 43.9114 26.5573 44.0833L21.9115 47.8906C21 48.651 20.5417 49.849 20.7292 51.0104L21.724 57.4479C10.4896 53.7187 2.375 43.1302 2.375 30.6771ZM30.5573 58.875C28.4063 58.875 26.3125 58.6302 24.2917 58.151L23.1302 50.651C23.0729 50.3073 23.2083 49.9844 23.474 49.776L28.099 45.9687C28.8802 45.3177 29.3385 44.3698 29.3385 43.3594V41.2448C29.3385 39.5885 28.1563 38.1979 26.5417 37.9114L20.75 36.901C20.3906 36.8437 20.1042 36.5781 20.0104 36.2187L19.1719 33.1719C18.8281 31.9323 17.8177 31 16.5417 30.7552L10.6563 29.6302C10.4687 29.5937 10.276 29.4792 10.1458 29.3229L7.15625 25.9375C6.90625 25.651 6.84896 25.25 7.00521 24.9271C7.15625 24.5833 7.47917 24.3542 7.85938 24.3542H9.38542C11.25 24.3542 12.7708 22.8489 12.7708 20.9844V19.3489C12.7708 18.9687 13 18.625 13.3438 18.4896L20.599 15.4792C21.8542 14.9479 22.6719 13.7292 22.6719 12.3594V9.27603C22.6719 8.03645 22.0052 6.91145 20.9219 6.32291L18.7344 5.10416C22.3333 3.42707 26.3281 2.49478 30.5573 2.49478C33.375 2.49478 36.1563 2.91666 38.8021 3.73436L36.25 5.33332C35.2813 5.96353 34.6719 7.0677 34.6719 8.20832V9.52082C34.6719 10.2656 34.9375 11.0052 35.3958 11.5989L36.5573 13.0989C36.8594 13.4844 36.8021 14.0521 36.4427 14.375L33.1823 17.2917C32.4063 17.9739 31.9844 18.9844 32.0625 20.0312L32.5 26.7552C32.5573 27.4792 32.8438 28.2031 33.3177 28.7344L35.0313 30.7135C35.6615 31.4583 36.5938 31.8958 37.5833 31.8958H43.3542C43.8646 31.8958 44.3073 32.3125 44.3073 32.8489V41.4375C44.3073 42.6562 44.9688 43.7396 45.9792 44.3281C45.5781 45.6042 45.3698 46.9583 45.3698 48.3281C45.3698 48.8594 45.4115 49.3958 45.4688 49.9062C45.4844 50.0781 45.5208 50.25 45.5625 50.4219C45.599 50.7656 45.6771 51.125 45.75 51.4687C45.8073 51.6615 45.849 51.849 45.9063 52.0417C46 52.3646 46.0938 52.6719 46.2083 52.9948C46.2865 53.1823 46.3594 53.375 46.4375 53.5469C46.474 53.6615 46.5156 53.776 46.5729 53.8698C41.849 57.1458 36.3281 58.875 30.5573 58.875ZM58.8698 59.3906C58.1875 59.3906 57.5781 59.3542 57.0052 59.2396C53.7135 58.6875 50.7969 56.5937 49.1771 53.6771C48.2865 52.0417 47.8073 50.1927 47.8073 48.3281C47.8073 46.8437 48.1146 45.3958 48.6823 44.0625C49.6719 41.6823 51.5 39.7187 53.7865 38.5208C54.1875 38.3125 54.4323 37.8958 54.4323 37.4375V6.91145C54.4323 4.47395 56.4323 2.49478 58.8698 2.49478C61.3073 2.49478 63.2865 4.47395 63.2865 6.91145V37.4375C63.2865 37.8958 63.5365 38.3125 63.9375 38.5208C67.6302 40.4427 69.9167 44.2135 69.9167 48.3281C69.9167 54.4427 64.9635 59.3906 58.8698 59.3906Z" fill="white"/>
</g>
</svg>
